<svg width="40" height="40" viewBox="0 0 40 40" fill="none" xmlns="http://www.w3.org/2000/svg">
<rect width="40" height="40" rx="20" fill="#0A9D54"/>
<path d="M24.235 22.205C24.0075 22.0388 23.6925 21.6538 23.5437 21.47C24.585 20.0087 26.125 17.2613 26.125 13.875C26.125 12.1687 25.4775 11.25 24.375 11.25C23.0275 11.25 20.91 13.0525 20 16.4737C19.09 13.0525 16.9725 11.25 15.625 11.25C14.5225 11.25 13.875 12.1687 13.875 13.875C13.875 17.2613 15.415 20.0087 16.4562 21.47C16.3075 21.6538 15.9925 22.0388 15.765 22.205C15.3275 22.5638 14.3125 23.4038 14.3125 24.8125C14.3125 26.7463 15.8787 28.3125 17.8125 28.3125C19.1687 28.3125 20 27.8225 20 27.8225C20 27.8225 20.8313 28.3125 22.1875 28.3125C24.1213 28.3125 25.6875 26.7463 25.6875 24.8125C25.6875 23.4038 24.6725 22.5638 24.235 22.205ZM17.6813 20.175C16.7975 18.8625 15.625 16.605 15.625 13.875C15.625 13.4462 15.6775 13.175 15.73 13.0263C16.5525 13.2975 18.565 15.3975 18.6875 19.7113C18.2762 19.8162 17.9525 19.9738 17.6813 20.175ZM18.6875 24.1562C18.4425 24.1562 18.25 23.8588 18.25 23.5C18.25 23.1412 18.4425 22.8438 18.6875 22.8438C18.9325 22.8438 19.125 23.1412 19.125 23.5C19.125 23.8588 18.9325 24.1562 18.6875 24.1562ZM20 26.5625C19.5188 26.5625 19.125 25.9325 19.125 25.6875C19.125 25.4425 19.5188 25.25 20 25.25C20.4812 25.25 20.875 25.4425 20.875 25.6875C20.875 25.9325 20.4812 26.5625 20 26.5625ZM21.3125 24.1562C21.0675 24.1562 20.875 23.8588 20.875 23.5C20.875 23.1412 21.0675 22.8438 21.3125 22.8438C21.5575 22.8438 21.75 23.1412 21.75 23.5C21.75 23.8588 21.5575 24.1562 21.3125 24.1562ZM21.3125 19.7113C21.435 15.3975 23.4475 13.2975 24.27 13.0263C24.3225 13.175 24.375 13.4462 24.375 13.875C24.375 16.605 23.2025 18.8625 22.3187 20.175C22.0475 19.9738 21.7238 19.8162 21.3125 19.7113Z" fill="white"/>
</svg>
