<svg width="88" height="16" viewBox="0 0 88 16" fill="none" xmlns="http://www.w3.org/2000/svg">
<g clip-path="url(#clip0_30_28)">
<path d="M82.9613 6.38386L84.8427 10.9316H84.8648L86.7017 6.38368H88L84.0397 15.5126H82.8077L84.2818 12.3192L81.6745 6.38368H82.9615L82.9613 6.38386ZM78.693 6.17465C79.573 6.17465 80.2658 6.40588 80.772 6.87934C81.2781 7.35297 81.5311 7.9916 81.5311 8.81758V12.7267H80.3978V11.8459H80.3431C79.8481 12.5726 79.1988 12.9359 78.3845 12.9359C77.6916 12.9359 77.1085 12.7267 76.6356 12.3193C76.1623 11.9009 75.9313 11.3834 75.9313 10.7667C75.9313 10.1168 76.1735 9.58833 76.6796 9.20278C77.1746 8.81741 77.8346 8.61921 78.6596 8.61921C79.3636 8.61921 79.9468 8.75151 80.409 9.00459V8.72932C80.409 8.31091 80.244 7.96958 79.914 7.67229C79.584 7.38584 79.1988 7.2427 78.7588 7.2427C78.0988 7.2427 77.5708 7.51796 77.1855 8.07968L76.1405 7.41904C76.7125 6.59306 77.5708 6.17465 78.6928 6.17465H78.693ZM72.6859 3.45465C73.4891 3.45465 74.1713 3.71891 74.7321 4.25861C75.3041 4.79814 75.5793 5.44777 75.5793 6.20768C75.5793 6.98945 75.2931 7.65027 74.7321 8.16777C74.1819 8.69646 73.5001 8.96072 72.6859 8.96072H70.7278V12.7157H69.5394V3.45465H72.6859ZM78.8468 9.5553C78.3628 9.5553 77.9668 9.67642 77.6365 9.90764C77.3175 10.1499 77.1525 10.4363 77.1525 10.7777C77.1525 11.086 77.2845 11.3502 77.5485 11.5484C77.8125 11.7578 78.1205 11.8569 78.4725 11.8569C78.9676 11.8569 79.4188 11.6697 79.8148 11.3064C80.2108 10.9318 80.3978 10.5024 80.3978 9.99573C80.024 9.69844 79.5068 9.5553 78.8468 9.5553ZM72.7186 4.61078H70.7276V7.83745H72.7186C73.1919 7.83745 73.5879 7.6833 73.8959 7.36399C74.2151 7.04467 74.3689 6.67014 74.3689 6.22971C74.3689 5.80029 74.2151 5.42575 73.8959 5.10644C73.5879 4.77611 73.1919 4.61095 72.7186 4.61095V4.61078ZM52.7512 6.18566C53.5542 6.18566 54.1925 6.53801 54.5227 6.93439H54.5774V6.38386H55.9857V12.4405C55.9857 14.9292 54.5227 15.9534 52.7845 15.9534C51.156 15.9534 50.177 14.8522 49.8029 13.9601L51.0902 13.4206C51.321 13.9711 51.8822 14.6209 52.7845 14.6209C53.8955 14.6209 54.5774 13.9271 54.5774 12.6387V12.1542H54.5227C54.1925 12.5616 53.5542 12.9249 52.7512 12.9249C51.068 12.9249 49.528 11.4603 49.528 9.56631C49.528 7.66128 51.068 6.18566 52.7512 6.18566ZM62.4327 6.19667C64.1821 6.19667 65.0291 7.5842 65.3151 8.34394L65.4691 8.72932L60.9696 10.5905C61.3106 11.2623 61.8496 11.6147 62.5976 11.6147C63.3461 11.5926 63.8741 11.2293 64.2589 10.6676L65.4029 11.4383C65.0291 11.989 64.1379 12.9361 62.5976 12.9361C60.6834 12.9361 59.2644 11.4605 59.2644 9.56631C59.2644 7.56201 60.7056 6.19667 62.4327 6.19667ZM29.4953 2.46368C31.0903 2.46368 32.2235 3.0913 33.0707 3.90626L32.0585 4.91925C31.4425 4.3467 30.6173 3.89525 29.4841 3.89525C27.383 3.89525 25.7328 5.59108 25.7328 7.69448C25.7328 9.79771 27.372 11.4935 29.4841 11.4935C30.8483 11.4935 31.6295 10.943 32.1245 10.4475C32.5317 10.0399 32.7957 9.45637 32.9057 8.65242H29.4513V7.22102H34.2918C34.3468 7.47409 34.3688 7.78257 34.3688 8.11289C34.3688 9.1811 34.0718 10.5134 33.1365 11.4605C32.2125 12.4186 31.0465 12.9251 29.4953 12.9251C26.613 12.9251 24.1926 10.5795 24.1926 7.69448C24.1926 4.80932 26.6128 2.46368 29.4953 2.46368ZM38.2417 6.18566C40.101 6.18566 41.619 7.60622 41.619 9.5553C41.619 11.4935 40.101 12.9249 38.2417 12.9249C36.3825 12.9249 34.8643 11.4935 34.8643 9.5553C34.8643 7.60605 36.3825 6.18566 38.2417 6.18566ZM45.5902 6.18566C47.4494 6.18566 48.9675 7.60622 48.9675 9.5553C48.9675 11.4935 47.4494 12.9249 45.5902 12.9249C43.7309 12.9249 42.2125 11.4935 42.2125 9.5553C42.2125 7.60605 43.7309 6.18566 45.5902 6.18566ZM58.5274 2.81603V12.7159H57.0532V2.81603H58.5274ZM38.2527 7.51796C37.2407 7.51796 36.3603 8.34394 36.3603 9.5553C36.3603 10.7556 37.2407 11.5926 38.2527 11.5926C39.2649 11.5926 40.145 10.7556 40.145 9.5553C40.145 8.34411 39.2649 7.51814 38.2527 7.51814V7.51796ZM45.5902 7.51796C44.5779 7.51796 43.6979 8.34394 43.6979 9.5553C43.6979 10.7556 44.5779 11.5926 45.5902 11.5926C46.6022 11.5926 47.4822 10.7556 47.4822 9.5553C47.4822 8.34411 46.6022 7.51814 45.5902 7.51814V7.51796ZM52.8942 7.50712C51.8712 7.50712 51.0242 8.37698 51.0242 9.56648C51.0242 10.7446 51.8822 11.5926 52.8942 11.5926C53.8955 11.5926 54.6875 10.7446 54.6875 9.56631C54.6875 8.37698 53.8955 7.50695 52.8942 7.50695V7.50712ZM62.4767 7.4851C61.7287 7.4851 60.6834 8.15676 60.7274 9.4562L63.7309 8.2008C63.5659 7.78239 63.0709 7.4851 62.4767 7.4851Z" fill="#5F6368"/>
<path d="M16.3905 2.97566C14.6104 1.94718 12.3342 2.55828 11.3057 4.33996L8.71266 8.8363C7.96243 10.1345 8.92836 10.5882 10.0053 11.2346L12.5004 12.6763C13.3454 13.164 14.4246 12.8743 14.9118 12.0298L17.5776 7.40903C18.4731 5.85634 17.9417 3.872 16.3905 2.97548V2.97566Z" fill="#EA4335"/>
<path d="M13.4564 4.83667L10.9615 3.39512C9.58406 2.62987 8.80409 2.57912 8.23862 3.4789L4.55878 9.85808C3.53096 11.6387 4.14284 13.9159 5.92174 14.9423C7.47292 15.8386 9.45532 15.3067 10.351 13.754L14.1013 7.25146C14.5908 6.4057 14.3013 5.32423 13.4564 4.83649V4.83667Z" fill="#FBBC04"/>
<path d="M13.9367 1.55734L12.1842 0.544007C10.2458 -0.575649 7.76723 0.0884375 6.6485 2.02891L3.31172 7.813C2.81878 8.66633 3.11148 9.7588 3.96415 10.2512L5.92679 11.3853C6.896 11.946 8.1347 11.6133 8.69467 10.6431L12.5067 4.03493C13.2965 2.66599 15.0446 2.19682 16.412 2.98753L13.9367 1.55734Z" fill="#34A853"/>
<path d="M7.12253 3.68362L5.22795 2.59115C4.38301 2.10461 3.30381 2.39296 2.81654 3.23648L0.543667 7.16784C-0.575239 9.10281 0.0881985 11.5782 2.02643 12.6951L3.46881 13.5264L5.21798 14.5351L5.97698 14.9722C4.62948 14.0693 4.20151 12.26 5.02548 10.8351L5.61398 9.81748L7.76929 6.08999C8.25535 5.2487 7.96609 4.17051 7.12218 3.6838L7.12253 3.68362Z" fill="#4285F4"/>
</g>
<defs>
<clipPath id="clip0_30_28">
<rect width="88" height="16" fill="white"/>
</clipPath>
</defs>
</svg>
