<svg width="40" height="40" viewBox="0 0 40 40" fill="none" xmlns="http://www.w3.org/2000/svg">
<rect width="40" height="40" rx="20" fill="#04B0C8"/>
<path d="M25.5343 13.4543L23.5043 15.4857C22.5027 14.7061 21.2692 14.2837 20 14.2857C18.7308 14.2837 17.4973 14.7061 16.4957 15.4857L14.4657 13.4543C16.0115 12.1435 17.9733 11.4255 20 11.4286C22.11 11.4286 24.0429 12.1914 25.5343 13.4543ZM26.5457 14.4657C27.8565 16.0115 28.5745 17.9733 28.5714 20C28.5714 22.11 27.8086 24.0429 26.5457 25.5343L24.5143 23.5043C25.2657 22.5357 25.7143 21.32 25.7143 20C25.7143 18.68 25.2657 17.4643 24.5143 16.4957L26.5457 14.4657ZM25.5343 26.5457C23.9885 27.8565 22.0267 28.5745 20 28.5714C17.89 28.5714 15.9571 27.8086 14.4657 26.5457L16.4957 24.5143C17.4973 25.2939 18.7308 25.7163 20 25.7143C21.32 25.7143 22.5357 25.2657 23.5043 24.5143L25.5343 26.5457ZM13.4543 25.5343C12.1435 23.9885 11.4255 22.0267 11.4286 20C11.4286 17.89 12.1914 15.9571 13.4543 14.4657L15.4857 16.4957C14.7061 17.4973 14.2837 18.7308 14.2857 20C14.2857 21.32 14.7343 22.5357 15.4857 23.5043L13.4543 25.5343ZM22.7686 16.7286C22.9497 16.8822 23.1178 17.0503 23.2714 17.2314C23.9043 17.9786 24.2857 18.9457 24.2857 20C24.2869 20.623 24.1517 21.2386 23.8896 21.8038C23.6275 22.3689 23.2449 22.8699 22.7686 23.2714C21.9954 23.9275 21.014 24.2871 20 24.2857C19.377 24.2869 18.7614 24.1517 18.1962 23.8896C17.6311 23.6275 17.1301 23.2449 16.7286 22.7686C16.0957 22.0214 15.7143 21.0543 15.7143 20C15.7131 19.377 15.8483 18.7614 16.1104 18.1962C16.3725 17.6311 16.7551 17.1301 17.2314 16.7286C17.9786 16.0957 18.9457 15.7143 20 15.7143C21.0557 15.7143 22.0214 16.0957 22.7686 16.7286ZM20 10C17.3478 10 14.8043 11.0536 12.9289 12.9289C11.0536 14.8043 10 17.3478 10 20C10 22.6522 11.0536 25.1957 12.9289 27.0711C14.8043 28.9464 17.3478 30 20 30C22.6522 30 25.1957 28.9464 27.0711 27.0711C28.9464 25.1957 30 22.6522 30 20C30 17.3478 28.9464 14.8043 27.0711 12.9289C25.1957 11.0536 22.6522 10 20 10Z" fill="white"/>
</svg>
