<svg width="20" height="16" viewBox="0 0 20 16" fill="none" xmlns="http://www.w3.org/2000/svg">
<path d="M4.70933 3.3725C6.09369 2.36177 7.86868 1.59215 9.99991 1.59215C12.5249 1.59215 14.5467 2.67143 16.0186 3.95345C17.4811 5.22492 18.4592 6.72198 18.9217 7.79423C19.0248 8.02567 19.0248 8.28348 18.9217 8.51493C18.503 9.4612 17.6623 10.7942 16.4249 11.9836L19.7123 14.3977C20.0373 14.6379 20.0967 15.0803 19.8405 15.385C19.5842 15.6897 19.1123 15.7453 18.7873 15.5051L0.287367 1.91119C-0.0386303 1.67154 -0.0957861 1.22975 0.159743 0.924069C0.415303 0.618447 0.886549 0.564864 1.2128 0.804422L4.70933 3.3725ZM6.97181 5.03449L9.79366 7.10869C9.92491 6.85967 9.99991 6.57842 9.99991 6.25323C9.99991 5.94269 9.87804 5.62628 9.73741 5.35383C9.82491 5.34504 9.91241 5.31574 9.99991 5.31574C11.6561 5.31574 12.9999 6.57549 12.9999 8.12821C12.9999 8.55594 12.9093 8.9368 12.7218 9.2825L13.9561 10.1673C14.303 9.5696 14.4999 8.88406 14.4999 8.12821C14.4999 5.8255 12.4843 3.90951 9.99991 3.90951C8.83429 3.90951 7.76868 4.35188 6.97181 5.03449ZM9.99991 14.717C7.47493 14.717 5.45307 13.6389 3.98121 12.3557C2.51935 11.0579 1.54186 9.56081 1.07686 8.51493C1.02611 8.40074 0.999986 8.27827 0.999986 8.15458C0.999986 8.03088 1.02611 7.90841 1.07686 7.79423C1.37498 7.12334 1.88404 6.25616 2.59653 5.38605L5.5437 7.56279C5.51557 7.75615 5.49995 7.95243 5.49995 8.12821C5.49995 10.4837 7.51556 12.3733 9.99991 12.3733C10.5843 12.3733 11.1437 12.2678 11.6561 12.0774L13.9436 13.7649C12.8093 14.3391 11.4936 14.717 9.99991 14.717Z" fill="black"/>
</svg>
