<svg width="19" height="20" viewBox="0 0 19 20" fill="none" xmlns="http://www.w3.org/2000/svg">
<path d="M12.6675 14.0032L14.3036 12.3664C14.5239 12.1487 14.8027 11.9997 15.1061 11.9374C15.4095 11.8752 15.7244 11.9024 16.0127 12.0157L18.0067 12.8121C18.2979 12.9304 18.5477 13.1323 18.7245 13.3924C18.9013 13.6525 18.9971 13.959 19 14.2735V17.927C18.9983 18.1409 18.9534 18.3523 18.8678 18.5484C18.7823 18.7445 18.6581 18.9212 18.5025 19.068C18.3469 19.2148 18.1632 19.3285 17.9625 19.4024C17.7618 19.4763 17.5483 19.5088 17.3347 19.498C3.36224 18.6284 0.542915 6.79127 0.00972701 2.26099C-0.015024 2.03852 0.00759034 1.81333 0.0760821 1.60024C0.144574 1.38714 0.257391 1.19096 0.407111 1.02462C0.556831 0.858272 0.740062 0.725524 0.944748 0.635108C1.14943 0.544692 1.37094 0.498656 1.59468 0.50003H5.12249C5.4373 0.500962 5.74463 0.596092 6.00495 0.773183C6.26528 0.950274 6.46669 1.20123 6.58328 1.49377L7.37941 3.48855C7.49646 3.77576 7.52632 4.09111 7.46527 4.3952C7.40422 4.69929 7.25495 4.97864 7.03613 5.19836L5.40004 6.83511C5.40004 6.83511 6.34225 13.214 12.6675 14.0032Z" fill="black"/>
</svg>
