<svg width="40" height="40" viewBox="0 0 40 40" fill="none" xmlns="http://www.w3.org/2000/svg">
<rect width="40" height="40" rx="20" fill="#DCC600"/>
<path d="M27.2 15.0789H24.5V13.2895C24.5 12.2963 23.699 11.5 22.7 11.5H17.3C16.301 11.5 15.5 12.2963 15.5 13.2895V15.0789H12.8C11.801 15.0789 11 15.8753 11 16.8684V26.7105C11 27.7037 11.801 28.5 12.8 28.5H27.2C28.199 28.5 29 27.7037 29 26.7105V16.8684C29 15.8753 28.199 15.0789 27.2 15.0789ZM17.3 13.2895H22.7V15.0789H17.3V13.2895ZM27.2 26.7105H12.8V24.9211H27.2V26.7105ZM27.2 22.2368H12.8V16.8684H15.5V18.6579H17.3V16.8684H22.7V18.6579H24.5V16.8684H27.2V22.2368Z" fill="white"/>
</svg>
