<svg width="58" height="54" viewBox="0 0 58 54" fill="none" xmlns="http://www.w3.org/2000/svg">
<path d="M24.3333 2.38889C24.3333 2.38889 24.3333 0 26.6667 0C29 0 29 2.38889 29 2.38889V4.77778C29 4.77778 29 7.16667 26.6667 7.16667C24.3333 7.16667 24.3333 4.77778 24.3333 4.77778V2.38889ZM43 16.7222C43 16.7222 45.3333 16.7222 45.3333 19.1111C45.3333 21.5 43 21.5 43 21.5H40.6667C40.6667 21.5 38.3333 21.5 38.3333 19.1111C38.3333 16.7222 40.6667 16.7222 40.6667 16.7222H43ZM12.6667 16.7222C12.6667 16.7222 15 16.7222 15 19.1111C15 21.5 12.6667 21.5 12.6667 21.5H10.3333C10.3333 21.5 8 21.5 8 19.1111C8 16.7222 10.3333 16.7222 10.3333 16.7222H12.6667ZM17.184 7.21803C17.184 7.21803 18.8337 8.90697 17.184 10.5959C15.5343 12.2849 13.8847 10.5959 13.8847 10.5959L12.2338 8.90817C12.2338 8.90817 10.5842 7.21922 12.2338 5.52908C13.8847 3.84014 15.5343 5.52908 15.5343 5.52908L17.184 7.21803ZM39.4498 10.5959C39.4498 10.5959 37.8002 12.2849 36.1505 10.5959C34.5008 8.90697 36.1505 7.21803 36.1505 7.21803L37.8002 5.52908C37.8002 5.52908 39.4498 3.84014 41.0995 5.52908C42.7492 7.21803 41.0995 8.90697 41.0995 8.90697L39.4498 10.5959Z" fill="#FFE600"/>
<path d="M26.6667 29.8611C32.4657 29.8611 37.1667 25.0482 37.1667 19.1111C37.1667 13.1741 32.4657 8.36111 26.6667 8.36111C20.8677 8.36111 16.1667 13.1741 16.1667 19.1111C16.1667 25.0482 20.8677 29.8611 26.6667 29.8611Z" fill="#FFE600"/>
<g filter="url(#filter0_d_31_147)">
<path d="M40.6667 23.8889C39.7042 23.8889 38.7767 24.0382 37.9028 24.3153C37.3848 22.7956 36.4181 21.4784 35.1366 20.546C33.8551 19.6136 32.3222 19.1121 30.75 19.1111C27.1987 19.1111 24.226 21.6147 23.4012 24.989C22.4968 24.2788 21.3897 23.8923 20.25 23.8889C18.8576 23.8889 17.5223 24.4552 16.5377 25.4632C15.5531 26.4712 15 27.8384 15 29.2639C15 29.9853 15.1435 30.6709 15.3955 31.2992C14.888 31.1455 14.3625 31.0636 13.8333 31.0556C10.611 31.0556 8 33.7287 8 37.0278C8 40.3268 10.611 43 13.8333 43H40.6667C43.142 43 45.516 41.9933 47.2663 40.2012C49.0167 38.4092 50 35.9787 50 33.4444C50 30.9102 49.0167 28.4797 47.2663 26.6876C45.516 24.8956 43.142 23.8889 40.6667 23.8889Z" fill="white"/>
</g>
<defs>
<filter id="filter0_d_31_147" x="0" y="14.1111" width="58" height="39.8889" filterUnits="userSpaceOnUse" color-interpolation-filters="sRGB">
<feFlood flood-opacity="0" result="BackgroundImageFix"/>
<feColorMatrix in="SourceAlpha" type="matrix" values="0 0 0 0 0 0 0 0 0 0 0 0 0 0 0 0 0 0 127 0" result="hardAlpha"/>
<feOffset dy="3"/>
<feGaussianBlur stdDeviation="4"/>
<feComposite in2="hardAlpha" operator="out"/>
<feColorMatrix type="matrix" values="0 0 0 0 0.341667 0 0 0 0 0 0 0 0 0 0.141123 0 0 0 0.19 0"/>
<feBlend mode="normal" in2="BackgroundImageFix" result="effect1_dropShadow_31_147"/>
<feBlend mode="normal" in="SourceGraphic" in2="effect1_dropShadow_31_147" result="shape"/>
</filter>
</defs>
</svg>
