<svg width="33" height="11" viewBox="0 0 33 11" fill="none" xmlns="http://www.w3.org/2000/svg">
<path d="M17.0668 3.35155C17.048 4.74459 18.3898 5.52191 19.4005 5.98413C20.439 6.45831 20.7878 6.76242 20.7837 7.18653C20.7759 7.83551 19.9553 8.12195 19.1874 8.13308C17.8477 8.15256 17.0687 7.79365 16.4495 7.52221L15.9668 9.64141C16.5882 9.91007 17.7387 10.1444 18.9317 10.1547C21.7322 10.1547 23.5643 8.85743 23.5742 6.84613C23.5852 4.29351 19.8117 4.15222 19.8375 3.01127C19.8464 2.66531 20.1982 2.29612 20.9691 2.20225C21.3506 2.15483 22.4039 2.11854 23.5981 2.63458L24.0668 0.584212C23.4246 0.36478 22.5992 0.154663 21.5716 0.154663C18.9357 0.154663 17.0818 1.46956 17.0668 3.35155ZM28.5705 0.331273C28.0592 0.331273 27.6282 0.611188 27.4359 1.04074L23.4355 10.0041H26.234L26.7908 8.55985H30.2105L30.5335 10.0041H33L30.8477 0.331273H28.5705ZM28.962 2.94426L29.7696 6.57649H27.5578L28.962 2.94426ZM13.6739 0.331394L11.468 10.0039H14.1347L16.3395 0.331152H13.6739V0.331394ZM9.72894 0.331152L6.95333 6.91496L5.83056 1.31702C5.69882 0.692114 5.17855 0.331273 4.60079 0.331273H0.0635508L0 0.612155C0.931477 0.801829 1.9898 1.10775 2.63098 1.43509C3.02337 1.63504 3.13526 1.80984 3.26416 2.28499L5.39073 10.0041H8.20875L12.5292 0.331273H9.72894" fill="#1518E0"/>
</svg>
