<svg width="28" height="28" viewBox="0 0 28 28" fill="none" xmlns="http://www.w3.org/2000/svg">
<path fill-rule="evenodd" clip-rule="evenodd" d="M13.9999 4.69609C8.86157 4.69609 4.69609 8.86157 4.69609 13.9999C4.69609 16.533 5.70842 18.8297 7.35057 20.5074C8.37238 19.1932 10.3659 17.6628 14 17.6628C17.634 17.6628 19.6275 19.1931 20.6493 20.5074C22.2915 18.8297 23.3038 16.533 23.3038 13.9999C23.3038 8.86157 19.1383 4.69609 13.9999 4.69609ZM19.353 21.6105C18.6373 20.658 17.1149 19.3628 14 19.3628C10.885 19.3628 9.3626 20.658 8.64688 21.6105C10.1608 22.6773 12.0072 23.3038 13.9999 23.3038C15.9927 23.3038 17.8392 22.6773 19.353 21.6105ZM2.99609 13.9999C2.99609 7.92268 7.92268 2.99609 13.9999 2.99609C20.0772 2.99609 25.0038 7.92268 25.0038 13.9999C25.0038 20.0772 20.0772 25.0038 13.9999 25.0038C7.92268 25.0038 2.99609 20.0772 2.99609 13.9999ZM13.9999 9.20891C12.6001 9.20891 11.4653 10.3437 11.4653 11.7435C11.4653 13.1434 12.6001 14.2781 13.9999 14.2781C15.3998 14.2781 16.5346 13.1434 16.5346 11.7435C16.5346 10.3437 15.3998 9.20891 13.9999 9.20891ZM9.76532 11.7435C9.76532 9.40482 11.6612 7.50891 13.9999 7.50891C16.3387 7.50891 18.2346 9.40482 18.2346 11.7435C18.2346 14.0822 16.3387 15.9781 13.9999 15.9781C11.6612 15.9781 9.76532 14.0822 9.76532 11.7435Z" fill="#3E4852"/>
</svg>
