<svg width="28" height="28" viewBox="0 0 28 28" fill="none" xmlns="http://www.w3.org/2000/svg">
<path fill-rule="evenodd" clip-rule="evenodd" d="M19.7063 21.3489C20.0108 21.1121 20.163 20.9938 20.2629 20.735C20.3321 20.5559 20.3348 20.209 20.2684 20.0288C20.1724 19.7685 20.0341 19.6575 19.7575 19.4355C18.1955 18.1818 16.0555 17.6499 13.9997 17.6499C11.944 17.6499 9.80418 18.1817 8.2422 19.4353C7.96559 19.6572 7.82728 19.7682 7.7313 20.0286C7.66489 20.2087 7.66755 20.5556 7.73671 20.7347C7.83666 20.9936 7.98887 21.1119 8.29329 21.3487C9.869 22.574 11.8492 23.3038 13.9999 23.3038C16.1505 23.3038 18.1307 22.5741 19.7063 21.3489ZM13.9999 2.99609C7.92268 2.99609 2.99609 7.92268 2.99609 13.9999C2.99609 20.0772 7.92268 25.0038 13.9999 25.0038C20.0772 25.0038 25.0038 20.0772 25.0038 13.9999C25.0038 7.92268 20.0772 2.99609 13.9999 2.99609ZM17.3846 11.7435C17.3846 13.6128 15.8692 15.1281 13.9999 15.1281C12.1307 15.1281 10.6153 13.6128 10.6153 11.7435C10.6153 9.87426 12.1307 8.35891 13.9999 8.35891C15.8692 8.35891 17.3846 9.87426 17.3846 11.7435Z" fill="#164670"/>
</svg>
